<svg width="100%" height="100%" viewBox="0 0 691 691" fill="none" xmlns="http://www.w3.org/2000/svg">
    <g clip-path="url(#clip0_954_4340)">
        <path
            d="M636.55 403.04H44.91C26.7564 403.04 12.04 417.756 12.04 435.91V643.79C12.04 661.944 26.7564 676.66 44.91 676.66H636.55C654.704 676.66 669.42 661.944 669.42 643.79V435.91C669.42 417.756 654.704 403.04 636.55 403.04Z"
            fill="url(#paint0_linear_954_4340)"></path>
        <path opacity="0.71"
            d="M526.02 663.9L545.86 602.08C559.46 568.34 534.62 531.54 498.24 531.54H186.98C149.55 531.54 124.7 570.3 140.32 604.31L159.12 663.89H526.02V663.9Z"
            fill="url(#paint1_linear_954_4340)"></path>
        <path
            d="M217.38 314.61C290.392 314.61 349.58 255.422 349.58 182.41C349.58 109.398 290.392 50.21 217.38 50.21C144.368 50.21 85.1802 109.398 85.1802 182.41C85.1802 255.422 144.368 314.61 217.38 314.61Z"
            fill="url(#paint2_linear_954_4340)"></path>
        <path
            d="M120.75 510.55C123.39 538.19 143.97 556.13 170.18 561.75C176.42 563.19 182.79 563.92 189.17 564.39L195.57 564.67C178.54 565.03 160.79 562.34 146.09 553.2C131.43 544.2 121.34 527.81 120.75 510.55Z"
            fill="#8A98FF"></path>
        <path d="M225.69 564.67C308.15 564.06 400.65 564.05 483.1 564.67C400.64 565.29 308.14 565.28 225.69 564.67Z"
            fill="#8A98FF"></path>
        <path
            d="M531.57 560.9C546.58 551.84 559.07 537.22 562.44 519.7C563.59 513.9 563.68 507.95 563.1 502.07C564.1 507.91 564.19 513.95 563.19 519.84C560.19 537.61 547.3 552.72 531.57 560.9Z"
            fill="#8A98FF"></path>
        <path
            d="M571.57 554.78C560.27 579.78 532.93 594.05 506.36 595.88C502.53 596.17 498.69 596.24 494.86 596.19C502.52 595.98 510.16 595.18 517.62 593.54C539.86 588.88 561.06 575.34 571.57 554.78Z"
            fill="#8A98FF"></path>
        <path d="M448.75 600.43C417.61 601.09 382.98 601.08 351.81 600.43C382.98 599.78 417.6 599.77 448.75 600.43Z"
            fill="#8A98FF"></path>
        <path
            d="M125.93 579.25C113.2 574.83 101.21 564.64 98.6401 550.91C99.2401 552.44 99.6901 554.2 100.47 555.66C105.36 566.51 115.41 574.21 125.94 579.25H125.93Z"
            fill="#8A98FF"></path>
        <path
            d="M122.63 550.92C108.27 541.02 104.78 521.86 109.84 505.93C110.54 503.67 111.36 501.44 112.27 499.26C111.63 501.28 110.78 504.03 110.31 506.06C106.06 522.06 109.3 540.13 122.62 550.92H122.63Z"
            fill="#8A98FF"></path>
        <path d="M122.63 485.44C124.51 481.11 128.99 478.25 133.45 477.14C129.54 479.57 125.68 481.91 122.63 485.44Z"
            fill="#8A98FF"></path>
        <path
            d="M576.75 531.49C580.41 516.24 580.52 498.93 571.57 485.44C572.81 487 573.96 488.66 574.93 490.42C581.64 502.91 581.19 518.32 576.74 531.49H576.75Z"
            fill="#8A98FF"></path>
        <path
            d="M579.54 579.25C588.53 567.19 594.92 552.91 596.84 537.95C597.2 535.85 597.23 533.61 597.45 531.49C597.99 548.88 590.98 566.28 579.54 579.25Z"
            fill="#8A98FF"></path>
        <path
            d="M543.81 611.25C558.06 608.69 572.57 604.12 583.9 594.81C585.59 593.57 586.95 591.97 588.5 590.55C577.81 603.74 560.26 609.73 543.81 611.26V611.25Z"
            fill="#8A98FF"></path>
        <path
            d="M85.9304 495.96C90.9804 479.18 105.88 466.78 121.97 460.96L125.73 459.62C127.97 458.93 131.16 458.23 133.45 457.63C130.93 458.48 128.38 459.19 125.88 460.08C108.67 466.24 92.5304 478.4 85.9204 495.95L85.9304 495.96Z"
            fill="#8A98FF"></path>
        <path
            d="M547.63 445.61C564.65 447.41 582.07 454.4 593.27 467.75C594.84 469.66 596.22 471.72 597.46 473.85C586.24 457.4 566.67 449.06 547.63 445.61Z"
            fill="#8A98FF"></path>
        <path
            d="M620.51 510.55C624.76 522.88 625.03 536.26 623.91 549.15C622.85 558.77 620.66 568.49 617.6 577.67C616.52 580.73 615.33 583.76 614.16 586.78C615.59 582.33 617.26 577.4 618.43 572.84C623.74 552.84 625.91 530.74 620.51 510.54V510.55Z"
            fill="#8A98FF"></path>
        <path
            d="M563.68 629.84C552.03 637.13 538.71 642.29 524.93 643.51C509.26 644.08 485.5 643.54 469.79 643.5L456.01 643.25L469.79 643C485.45 642.69 509.25 642.98 524.86 642.6C538.55 641.45 551.78 636.6 563.68 629.83V629.84Z"
            fill="#8A98FF"></path>
        <path d="M324.24 653.84C278.39 654.5 227.42 654.49 181.53 653.84C227.42 653.19 278.38 653.18 324.24 653.84Z"
            fill="#8A98FF"></path>
        <path d="M240.04 611.25C231.6 611.93 223.06 611.93 214.63 611.25C223.07 610.57 231.61 610.57 240.04 611.25Z"
            fill="#8A98FF"></path>
        <path
            d="M125.93 619.96C101.27 616.41 77.6502 599.76 69.9302 575.49C71.1602 578.36 72.3902 581.22 73.9702 583.91C84.5302 603.14 104.8 615.53 125.93 619.96Z"
            fill="#8A98FF"></path>
        <path
            d="M130.16 565.09C144.25 571.77 159.29 576.91 174.84 578.69C177.05 579.04 179.29 579.04 181.53 579.26C163.55 579.7 145.67 573.97 130.16 565.09Z"
            fill="#8A98FF"></path>
        <path d="M200.28 579.25C206.55 578.57 212.83 578.56 219.1 579.25C212.83 579.94 206.55 579.93 200.28 579.25Z"
            fill="#8A98FF"></path>
        <path d="M304.75 579.25C349.87 578.59 400.02 578.6 445.17 579.25C400.01 579.9 349.88 579.91 304.75 579.25Z"
            fill="#8A98FF"></path>
        <path
            d="M545.86 480.38C559.46 514.12 534.62 550.92 498.24 550.92H186.98C149.55 550.92 124.7 512.16 140.32 478.15L182.03 345.94L182.32 346C177.45 369.9 195.61 393.77 221.52 393.77H463.7C488.78 393.77 506.81 371.3 503.23 347.91L503.33 347.89L545.86 480.38Z"
            fill="#A88C5A"></path>
        <path
            d="M503.23 347.91C506.81 371.3 488.78 393.77 463.7 393.77H221.52C195.61 393.77 177.45 369.9 182.32 346C182.91 343.04 183.87 340.07 185.21 337.15L218.53 264.59L222.63 255.66L225 250.51C231.51 236.33 245.69 227.23 261.3 227.23H418.49C418.49 227.23 438.63 226.14 449.92 233.29C456.92 237.72 462.6 244.22 465.83 252.25L500.75 338.89C501.95 341.88 502.77 344.9 503.23 347.91ZM336.66 258.5L338.12 253.56C336.37 252.69 333.03 251.74 329.25 251.74C317.76 251.74 310.35 259.59 310.35 270.42C310.35 281.25 317.25 288.38 327.87 288.38C332.59 288.38 336.3 287.22 337.97 286.34L336.88 281.55C335.06 282.35 332.66 283.29 329.03 283.29C322.05 283.29 316.82 278.28 316.82 270.13C316.82 262.79 321.18 256.83 329.25 256.83C332.74 256.83 335.14 257.63 336.66 258.5ZM301.84 258.5L303.44 253.85C301.48 252.69 298.35 251.67 294.79 251.67C287.23 251.67 282.65 256.32 282.65 261.99C282.65 266.21 285.63 269.7 291.96 271.95C296.68 273.7 298.5 275.37 298.5 278.42C298.5 281.47 296.32 283.66 291.67 283.66C288.47 283.66 285.12 282.35 283.23 281.11L281.63 285.98C284.11 287.44 287.67 288.38 291.52 288.38C299.88 288.38 304.68 284.02 304.68 277.84C304.68 272.61 301.55 269.55 295.45 267.23C290.87 265.48 288.76 264.17 288.76 261.27C288.76 258.65 290.87 256.47 294.65 256.47C297.92 256.47 300.46 257.63 301.84 258.5ZM275.97 271.22C276.04 270.57 276.18 269.55 276.18 268.24C276.18 261.77 273.13 251.67 261.65 251.67C251.4 251.67 245.14 260.03 245.14 270.64C245.14 281.25 251.61 288.38 262.45 288.38C268.04 288.38 271.89 287.22 274.15 286.2L273.06 281.62C270.66 282.64 267.9 283.44 263.32 283.44C256.92 283.44 251.4 279.87 251.25 271.22H275.97Z"
            fill="#E5CF98"></path>
        <path
            d="M338.12 253.56L336.66 258.5C335.14 257.63 332.74 256.83 329.25 256.83C321.18 256.83 316.82 262.79 316.82 270.13C316.82 278.28 322.05 283.29 329.03 283.29C332.66 283.29 335.06 282.35 336.88 281.55L337.97 286.34C336.3 287.22 332.59 288.38 327.87 288.38C317.25 288.38 310.35 281.18 310.35 270.42C310.35 259.66 317.76 251.74 329.25 251.74C333.03 251.74 336.37 252.69 338.12 253.56Z"
            fill="#1B2332"></path>
        <path
            d="M303.44 253.85L301.84 258.5C300.46 257.63 297.92 256.47 294.65 256.47C290.87 256.47 288.76 258.65 288.76 261.27C288.76 264.17 290.87 265.48 295.45 267.23C301.55 269.55 304.68 272.61 304.68 277.84C304.68 284.02 299.88 288.38 291.52 288.38C287.67 288.38 284.11 287.44 281.63 285.98L283.23 281.11C285.12 282.35 288.47 283.66 291.67 283.66C296.32 283.66 298.5 281.33 298.5 278.42C298.5 275.51 296.68 273.7 291.96 271.95C285.63 269.7 282.65 266.21 282.65 261.99C282.65 256.32 287.23 251.67 294.79 251.67C298.35 251.67 301.48 252.69 303.44 253.85Z"
            fill="#1B2332"></path>
        <path
            d="M276.18 268.24C276.18 269.55 276.04 270.57 275.97 271.22H251.25C251.4 279.87 256.92 283.44 263.32 283.44C267.9 283.44 270.66 282.64 273.06 281.62L274.15 286.2C271.89 287.22 268.04 288.38 262.45 288.38C251.61 288.38 245.14 281.26 245.14 270.64C245.14 260.02 251.4 251.67 261.65 251.67C273.13 251.67 276.18 261.77 276.18 268.24ZM270 266.65C270.08 262.57 268.33 256.25 261.14 256.25C254.67 256.25 251.83 262.21 251.32 266.65H270Z"
            fill="#1B2332"></path>
        <path
            d="M261.14 256.25C268.33 256.25 270.08 262.57 270 266.65H251.32C251.83 262.21 254.67 256.25 261.14 256.25Z"
            fill="#E5CF98"></path>
        <path
            d="M182.32 346C182.91 343.04 183.87 340.07 185.21 337.15L218.53 264.59L222.63 255.66L225 250.51C231.51 236.33 245.69 227.23 261.3 227.23H418.49C418.49 227.23 438.63 226.14 449.92 233.29C456.92 237.72 462.6 244.22 465.83 252.25L500.75 338.89C501.95 341.88 502.77 344.9 503.23 347.91C506.81 371.3 488.78 393.77 463.7 393.77H221.52C195.61 393.77 177.45 369.9 182.32 346Z"
            stroke="#1B2332" stroke-width="1.7" stroke-linecap="round" stroke-linejoin="round"></path>
        <path
            d="M503.33 347.89L545.86 480.38C559.46 514.12 534.62 550.92 498.24 550.92H186.98C149.55 550.92 124.7 512.16 140.32 478.15L182.03 345.94"
            stroke="#1B2332" stroke-width="1.7" stroke-linecap="round" stroke-linejoin="round"></path>
        <path
            d="M532.22 117.06C568.71 135.84 566.03 170.99 566.03 170.99C566.03 170.99 520.16 155.31 503.35 152.12C502.3 151.93 501.36 151.78 500.56 151.68L491.44 151L491.14 151.08C489.53 145.31 484.24 141.08 477.96 141.08C477.57 141.08 477.18 141.09 476.8 141.13C476.71 141.03 476.61 140.93 476.51 140.84L469.81 134.72C469.37 134.31 468.87 134 468.34 133.78H468.23C468.03 131.83 467.45 129.99 466.55 128.33L466.79 128.2C467.59 126.89 471.05 121.89 471.05 121.89C471.05 121.89 474.48 118.6 480.68 115.46C491.1 110.18 509.34 105.28 532.22 117.06Z"
            fill="#029831"></path>
        <path
            d="M516.66 20.2C516.66 20.2 516.77 36.8799 514.97 53.32L500.7 58.3699L513.33 64.8C512.46 69.56 511.35 73.9199 509.95 77.3499C505.71 87.7999 491.29 104.17 480.64 115.38L480.68 115.46C474.48 118.6 471.05 121.89 471.05 121.89C471.05 121.89 467.59 126.89 466.79 128.2L466.55 128.33C464.1 123.82 459.31 120.75 453.81 120.75C452.89 120.75 452 120.83 451.13 121L451.09 120.75C451.09 120.75 449.58 90.2299 458.71 68.5C467.83 46.77 516.66 20.2 516.66 20.2Z"
            fill="#029831"></path>
        <path
            d="M503.35 152.12L503.31 152.35C503.31 152.35 511.56 177.9 499.49 209.9C486.01 203.46 471.92 180.52 471.32 167.44L471.62 166.88C473.51 167.88 475.67 168.44 477.96 168.44C485.51 168.44 491.64 162.32 491.64 154.76C491.64 153.48 491.47 152.25 491.14 151.08L491.44 151L500.56 151.68C501.36 151.78 502.3 151.93 503.35 152.12Z"
            fill="#029831"></path>
        <path
            d="M491.14 151.08C491.47 152.25 491.64 153.48 491.64 154.76C491.64 162.32 485.51 168.44 477.96 168.44C475.67 168.44 473.51 167.88 471.62 166.88C469.84 165.96 468.28 164.64 467.07 163.05L466.89 162.92C467.01 162.78 467.12 162.64 467.22 162.49L477.3 147.3C478.58 145.36 478.36 142.81 476.8 141.13C477.18 141.09 477.57 141.08 477.96 141.08C484.24 141.08 489.53 145.31 491.14 151.08Z"
            fill="#685128"></path>
        <path
            d="M476.8 141.13C478.36 142.81 478.58 145.36 477.3 147.3L467.22 162.49C467.12 162.64 467.01 162.78 466.89 162.92C465.75 164.3 464.01 164.9 462.33 164.65C460.29 164.68 458.04 162.21 458.04 162.21L456.02 161C450.39 158.08 447.1 151.11 447.1 151.11C446.74 150.11 446.71 149.04 446.99 148.03C449.03 149.12 451.35 149.73 453.81 149.73C461.81 149.73 468.3 143.24 468.3 135.24C468.3 134.75 468.28 134.27 468.23 133.79H468.34C468.87 134 469.37 134.31 469.81 134.72L476.51 140.84C476.61 140.93 476.71 141.03 476.8 141.13Z"
            fill="#685128"></path>
        <path
            d="M468.23 133.79C468.28 134.27 468.3 134.75 468.3 135.24C468.3 143.24 461.81 149.73 453.81 149.73C451.35 149.73 449.03 149.12 446.99 148.03C442.43 145.59 439.32 140.78 439.32 135.24C439.32 128.47 443.96 122.78 450.24 121.2C450.53 121.12 450.83 121.05 451.13 121C452 120.83 452.89 120.75 453.81 120.75C459.31 120.75 464.1 123.82 466.55 128.33C467.45 129.99 468.03 131.83 468.23 133.79Z"
            fill="#685128"></path>
        <path
            d="M458.04 162.21C458.04 162.21 460.29 164.68 462.33 164.65C462.23 165.05 462.1 165.44 461.91 165.81L452.32 185.18C451.48 186.87 449.96 187.95 448.27 188.32C445.25 188.58 442.24 186.45 442.24 186.45L439.82 185.55C435.9 184.24 428.23 176.44 428.23 176.44C425.77 174.18 425.62 170.26 428.09 167.85L437.54 158.68L443.68 152.72C444.64 151.79 445.85 151.26 447.1 151.11C447.1 151.11 450.39 158.08 456.02 161L458.04 162.21Z"
            fill="#685128"></path>
        <path
            d="M447.55 120.06C448.48 120.4 449.37 120.76 450.22 121.13L450.24 121.2C443.96 122.78 439.32 128.47 439.32 135.24C439.32 140.78 442.43 145.59 446.99 148.03C446.71 149.04 446.74 150.11 447.1 151.11C445.85 151.26 444.64 151.79 443.68 152.72L437.54 158.68L437.38 158.52C423.69 160.13 367.64 177.97 367.64 177.97C367.64 177.97 364.96 142.82 401.45 124.04C405 122.22 408.44 120.79 411.75 119.7C426.47 114.88 438.74 116.77 447.55 120.06Z"
            fill="#029831"></path>
        <path
            d="M448.27 188.32C448.39 189.38 448.3 190.48 447.9 191.54L439.06 215.11C438.07 217.74 435.69 219.37 433.12 219.57C431.54 219.48 428.86 218.55 428.86 218.55L426.74 217.54C421.31 216.84 410.15 207.9 410.15 207.9C406.97 205.58 406.34 200.98 408.94 197.88L425.23 178.51C426.05 177.53 427.1 176.84 428.23 176.44C428.23 176.44 435.9 184.24 439.82 185.55L442.24 186.45C442.24 186.45 445.25 188.58 448.27 188.32Z"
            fill="#685128"></path>
        <path
            d="M377.41 34.96C431.47 55.96 446.9 117.38 447.55 120.06C438.74 116.77 426.47 114.88 411.75 119.7L411.69 119.51C378.14 87.88 377.41 34.96 377.41 34.96Z"
            fill="#029831"></path>
        <path
            d="M379.56 289.59C376.08 287.46 374.5 282.98 376.25 279L388.72 250.7C389.72 248.43 391.63 246.8 393.87 246.08C389.59 244.14 387.99 238.83 390.57 234.84L405.98 211.06C406.99 209.51 408.48 208.42 410.15 207.9C410.15 207.9 421.31 216.84 426.74 217.54L428.86 218.55C428.86 218.55 431.54 219.48 433.12 219.57C433.24 220.49 433.21 221.45 432.98 222.4L426.42 249.82C425.62 253.19 422.75 255.44 419.56 255.72C419.74 256.52 419.84 257.36 419.77 258.22L417.48 288.9C417.2 292.65 414.53 295.56 411.16 296.43L414.65 318.75V318.94C401.28 318.01 391.44 322.04 391.44 322.04C383.19 317.7 374.4 318.07 366.89 320.06L366.78 319.63L378.59 292.2C378.77 291.26 379.1 290.39 379.56 289.59Z"
            fill="#685128"></path>
        <path
            d="M414.65 318.75L411.16 296.43C414.53 295.56 417.2 292.65 417.48 288.9L419.77 258.22C419.84 257.36 419.74 256.52 419.56 255.72C422.75 255.44 425.62 253.19 426.42 249.82L432.98 222.4C433.21 221.45 433.24 220.49 433.12 219.57C435.69 219.37 438.07 217.74 439.06 215.11L447.9 191.54C448.3 190.48 448.39 189.38 448.27 188.32C449.96 187.95 451.48 186.87 452.32 185.18L461.91 165.81C462.1 165.44 462.23 165.05 462.33 164.65C464.01 164.9 465.75 164.3 466.89 162.92C467.01 162.78 467.12 162.64 467.22 162.49L477.3 147.3C478.58 145.36 478.36 142.81 476.8 141.13C476.71 141.03 476.61 140.93 476.51 140.84L469.81 134.72C469.37 134.31 468.87 134 468.34 133.78"
            stroke="#1B2332" stroke-width="1.7" stroke-linecap="round" stroke-linejoin="round"></path>
        <path
            d="M446.99 148.03C446.71 149.04 446.74 150.11 447.1 151.11C445.85 151.26 444.64 151.79 443.68 152.72L437.54 158.68L428.09 167.85C425.62 170.26 425.77 174.18 428.23 176.44C427.1 176.84 426.05 177.53 425.23 178.51L408.94 197.88C406.34 200.98 406.97 205.58 410.15 207.9C408.48 208.42 406.99 209.51 405.98 211.06L390.57 234.84C387.99 238.83 389.59 244.14 393.87 246.08C391.63 246.8 389.72 248.43 388.72 250.7L376.25 279C374.5 282.98 376.08 287.46 379.56 289.59C379.1 290.39 378.77 291.26 378.59 292.2L366.78 319.63"
            stroke="#1B2332" stroke-width="1.7" stroke-linecap="round" stroke-linejoin="round"></path>
        <path d="M393.18 245.42C393.18 245.42 402.04 251.33 409.43 252.81" stroke="#1B2332" stroke-width="1.7"
            stroke-linecap="round" stroke-linejoin="round"></path>
        <path d="M410.15 207.9C410.15 207.9 421.31 216.84 426.74 217.54" stroke="#1B2332" stroke-width="1.7"
            stroke-linecap="round" stroke-linejoin="round"></path>
        <path d="M428.23 176.44C428.23 176.44 435.9 184.24 439.82 185.55" stroke="#1B2332" stroke-width="1.7"
            stroke-linecap="round" stroke-linejoin="round"></path>
        <path d="M447.1 151.11C447.1 151.11 450.39 158.08 456.02 161" stroke="#1B2332" stroke-width="1.7"
            stroke-linecap="round" stroke-linejoin="round"></path>
        <path d="M379.56 289.59C379.56 289.59 386.2 296.23 400.68 295.62" stroke="#1B2332" stroke-width="1.7"
            stroke-linecap="round" stroke-linejoin="round"></path>
        <path d="M413.06 254.27C413.06 254.27 416.7 255.46 419.56 255.72" stroke="#1B2332" stroke-width="1.7"
            stroke-linecap="round" stroke-linejoin="round"></path>
        <path d="M428.86 218.55C428.86 218.55 431.54 219.48 433.12 219.57" stroke="#1B2332" stroke-width="1.7"
            stroke-linecap="round" stroke-linejoin="round"></path>
        <path d="M442.24 186.45C442.24 186.45 445.25 188.58 448.27 188.32" stroke="#1B2332" stroke-width="1.7"
            stroke-linecap="round" stroke-linejoin="round"></path>
        <path d="M458.04 162.21C458.04 162.21 460.29 164.68 462.33 164.65" stroke="#1B2332" stroke-width="1.7"
            stroke-linecap="round" stroke-linejoin="round"></path>
        <path d="M404.99 295.66C405.48 295.66 408.99 297.7 411.16 296.43" stroke="#1B2332" stroke-width="1.7"
            stroke-linecap="round" stroke-linejoin="round"></path>
        <path
            d="M468.23 133.79C468.28 134.27 468.3 134.75 468.3 135.24C468.3 143.24 461.81 149.73 453.81 149.73C451.35 149.73 449.03 149.12 446.99 148.03C442.43 145.59 439.32 140.78 439.32 135.24C439.32 128.47 443.96 122.78 450.24 121.2C450.53 121.12 450.83 121.05 451.13 121C452 120.83 452.89 120.75 453.81 120.75C459.31 120.75 464.1 123.82 466.55 128.33C467.45 129.99 468.03 131.83 468.23 133.79V133.79Z"
            stroke="#1B2332" stroke-width="1.7" stroke-linecap="round" stroke-linejoin="round"></path>
        <path
            d="M476.54 141.15C476.63 141.14 476.71 141.13 476.8 141.13C477.18 141.09 477.57 141.08 477.96 141.08C484.24 141.08 489.53 145.31 491.14 151.08C491.47 152.25 491.64 153.48 491.64 154.76C491.64 162.32 485.51 168.44 477.96 168.44C475.67 168.44 473.51 167.88 471.62 166.88C469.84 165.96 468.28 164.64 467.07 163.05"
            stroke="#1B2332" stroke-width="1.7" stroke-linecap="round" stroke-linejoin="round"></path>
        <path
            d="M451.09 120.75C451.09 120.75 449.58 90.2299 458.71 68.5C467.83 46.77 516.66 20.2 516.66 20.2C516.66 20.2 516.77 36.8799 514.97 53.32L500.7 58.3699L513.33 64.8C512.46 69.56 511.35 73.9199 509.95 77.3499C505.71 87.7999 491.29 104.17 480.64 115.38"
            stroke="#1B2332" stroke-width="1.7" stroke-linecap="round" stroke-linejoin="round"></path>
        <path
            d="M466.79 128.2C467.59 126.89 471.05 121.89 471.05 121.89C471.05 121.89 474.48 118.6 480.68 115.46C491.1 110.18 509.34 105.28 532.22 117.06C568.71 135.84 566.03 170.99 566.03 170.99C566.03 170.99 520.16 155.31 503.35 152.12C502.3 151.93 501.36 151.78 500.56 151.68L491.44 151"
            stroke="#1B2332" stroke-width="1.7" stroke-linecap="round" stroke-linejoin="round"></path>
        <path
            d="M450.22 121.13C449.37 120.76 448.48 120.4 447.55 120.06C438.74 116.77 426.47 114.88 411.75 119.7C408.44 120.79 405 122.22 401.45 124.04C364.96 142.82 367.64 177.97 367.64 177.97C367.64 177.97 423.69 160.13 437.38 158.52"
            stroke="#1B2332" stroke-width="1.7" stroke-linecap="round" stroke-linejoin="round"></path>
        <path
            d="M447.57 120.15C447.57 120.15 447.56 120.12 447.55 120.06C446.9 117.38 431.47 55.96 377.41 34.96C377.41 34.96 378.14 87.88 411.69 119.51"
            stroke="#1B2332" stroke-width="1.7" stroke-linecap="round" stroke-linejoin="round"></path>
        <path d="M503.31 152.35C503.31 152.35 511.56 177.9 499.49 209.9C486.01 203.46 471.92 180.52 471.32 167.44"
            stroke="#1B2332" stroke-width="1.7" stroke-linecap="round" stroke-linejoin="round"></path>
        <path
            d="M347.6 329.26C347.6 329.26 355.89 322.95 366.89 320.06C374.4 318.07 383.19 317.7 391.44 322.04C391.44 322.04 401.28 318.01 414.64 318.94C423.84 319.58 434.7 322.58 445.17 330.86"
            stroke="#1B2332" stroke-width="1.7" stroke-linecap="round" stroke-linejoin="round"></path>
        <path
            d="M414.16 207.9C414.16 207.9 410.04 203.49 411.16 200.9C411.98 199 420.75 189.21 425.39 184.1C425.97 183.46 427 184.11 426.68 184.91L419.47 203.21C418.8 204.92 418.64 206.79 419.03 208.58L419.6 211.24L414.16 207.88V207.9Z"
            fill="#A88C5A"></path>
        <path
            d="M433.66 175.75C433.61 175.71 433.56 175.67 433.52 175.63C433.06 175.09 430.27 171.7 431.24 169.74C432.01 168.19 439.85 160.38 444.05 156.26C444.59 155.73 445.47 156.33 445.16 157L438.42 171.79C437.73 173.31 437.51 175 437.8 176.65L437.89 177.16C437.99 177.74 437.33 178.15 436.83 177.82L433.67 175.74L433.66 175.75Z"
            fill="#A88C5A"></path>
        <path
            d="M396.92 244.43C396.85 244.38 396.79 244.32 396.74 244.24C396.14 243.42 392.45 238.19 393.57 235.02C394.45 232.5 403.89 219.55 408.94 212.71C409.58 211.84 410.73 212.72 410.38 213.82L402.69 237.82C401.9 240.29 401.72 243 402.17 245.6L402.31 246.41C402.47 247.32 401.66 248.02 401.01 247.53L396.93 244.43H396.92Z"
            fill="#A88C5A"></path>
        <path
            d="M383.51 287.24C383.44 287.18 383.38 287.1 383.33 287.01C382.73 286.03 379.04 279.8 380.16 276.01C381.04 273.01 390.48 257.56 395.53 249.4C396.17 248.36 397.32 249.42 396.97 250.72L389.28 279.34C388.49 282.29 388.31 285.52 388.76 288.61L388.9 289.57C389.06 290.66 388.25 291.5 387.6 290.91L383.52 287.22L383.51 287.24Z"
            fill="#A88C5A"></path>
        <path
            d="M371.16 171.08C371.45 170.56 378.51 139.82 405.63 126.99C393.15 143.74 385.12 165.49 385.12 165.49L371.16 171.08Z"
            fill="#51FF53"></path>
        <path
            d="M410.97 113.84C410.97 113.84 389.61 99.02 379.94 39.72C397.81 75.72 404.21 98.85 422.51 113.84C417.92 113.84 409.31 112.43 410.97 113.84Z"
            fill="#51FF53"></path>
        <path
            d="M456.02 113.84C456.02 113.84 456.71 81.3099 466.79 66.9199C476.87 52.5299 507.71 29.5699 507.71 29.5699C507.71 29.5699 474.47 57.3299 468.3 89.1899C464.53 114.55 463.85 120.75 463.85 120.75L456.03 113.84H456.02Z"
            fill="#51FF53"></path>
        <path d="M449.34 124.58C447.22 130.96 444.74 136.08 450.22 145.43C445.46 141.72 438.14 133.78 449.34 124.58Z"
            fill="#A88C5A"></path>
        <path
            d="M471.31 126.55C471.31 126.55 485.49 111.02 506.06 113.84C492.04 118.78 474.04 133.78 474.04 133.78L471.31 126.55Z"
            fill="#51FF53"></path>
    </g>
    <defs>
        <linearGradient id="paint0_linear_954_4340" x1="340.73" y1="676.66" x2="340.73" y2="403.04"
            gradientUnits="userSpaceOnUse">
            <stop offset="0.3" stop-color="#1B2332" stop-opacity="0"></stop>
            <stop offset="0.37" stop-color="#1C2437" stop-opacity="0.03"></stop>
            <stop offset="0.45" stop-color="#202845" stop-opacity="0.1"></stop>
            <stop offset="0.56" stop-color="#262F5E" stop-opacity="0.22"></stop>
            <stop offset="0.67" stop-color="#2E397F" stop-opacity="0.38"></stop>
            <stop offset="0.8" stop-color="#3946AB" stop-opacity="0.59"></stop>
            <stop offset="0.93" stop-color="#4655DE" stop-opacity="0.84"></stop>
            <stop offset="1" stop-color="#4F5FFF"></stop>
        </linearGradient>
        <linearGradient id="paint1_linear_954_4340" x1="342.61" y1="663.9" x2="342.61" y2="531.55"
            gradientUnits="userSpaceOnUse">
            <stop stop-color="#1B2332" stop-opacity="0"></stop>
            <stop offset="0.15" stop-color="#2F333A" stop-opacity="0.12"></stop>
            <stop offset="0.47" stop-color="#635D4F" stop-opacity="0.43"></stop>
            <stop offset="0.93" stop-color="#B6A070" stop-opacity="0.92"></stop>
            <stop offset="1" stop-color="#C4AB76"></stop>
        </linearGradient>
        <linearGradient id="paint2_linear_954_4340" x1="217.38" y1="314.6" x2="217.38" y2="50.21"
            gradientUnits="userSpaceOnUse">
            <stop stop-color="#1B2332" stop-opacity="0"></stop>
            <stop offset="0.19" stop-color="#4B4A35" stop-opacity="0.22"></stop>
            <stop offset="0.48" stop-color="#92843B" stop-opacity="0.55"></stop>
            <stop offset="0.73" stop-color="#C7AE3F" stop-opacity="0.79"></stop>
            <stop offset="0.91" stop-color="#E7C942" stop-opacity="0.94"></stop>
            <stop offset="1" stop-color="#F4D343"></stop>
        </linearGradient>
        <clipPath id="clip0_954_4340">
            <rect width="690.9" height="690.9" fill="white"></rect>
        </clipPath>
    </defs>
</svg>